<?xml version="1.0" encoding="utf-8"?>
<!-- Generator: Adobe Illustrator 18.1.1, SVG Export Plug-In . SVG Version: 6.00 Build 0)  -->
<svg version="1.1" id="Layer_1" xmlns="http://www.w3.org/2000/svg" xmlns:xlink="http://www.w3.org/1999/xlink" x="0px" y="0px"
	 viewBox="0 0 207.6 104.1" enable-background="new 0 0 207.6 104.1" xml:space="preserve">
<g>
	<path fill="#B3B3B3" d="M27.8,10.4c-0.7,1.2-1.6,2.1-2.7,2.7C24,13.7,22.7,14,21.3,14c-2.1,0-3.8-0.6-5.2-2c-1.4-1.3-2.1-3-2.1-5
		c0-2,0.7-3.7,2.1-5c1.4-1.3,3.1-2,5.2-2c1.3,0,2.5,0.3,3.6,0.8c1.1,0.6,1.9,1.3,2.6,2.3L26,4.3c-0.5-0.7-1.1-1.3-2-1.7
		c-0.8-0.4-1.7-0.6-2.7-0.6c-1.6,0-2.8,0.5-3.8,1.4c-1,1-1.5,2.2-1.5,3.6c0,1.5,0.5,2.7,1.5,3.7c1,1,2.3,1.4,3.8,1.4
		c1,0,2-0.2,2.8-0.7c0.8-0.4,1.5-1.2,2.1-2.1L27.8,10.4z M51.9,5.9h6.4c0.6,0,1.1-0.1,1.5-0.4c0.3-0.3,0.5-0.8,0.5-1.4
		c0-0.6-0.2-1-0.5-1.3c-0.3-0.3-0.9-0.4-1.5-0.4h-6.4V5.9z M51.9,7.8v5.8h-1.8V0.4h8.2c1.2,0,2.2,0.3,2.9,1c0.7,0.7,1,1.6,1,2.7
		c0,1-0.3,1.8-0.8,2.5c-0.6,0.7-1.3,1.1-2.1,1.3l3.3,5.8h-2l-3.4-5.8H51.9z M87.7,13.6V6.8l-5.5-6.5h2.4l4,4.7l3.9-4.7h2.5l-5.5,6.4
		v6.8H87.7z M118.1,5.9h6.8c0.6,0,1.1-0.1,1.5-0.4c0.3-0.3,0.5-0.8,0.5-1.4c0-0.6-0.2-1-0.5-1.3c-0.3-0.3-0.8-0.5-1.4-0.5h-6.9V5.9z
		 M118.1,7.8v5.8h-1.9V0.4h8.7c1.3,0,2.2,0.3,2.9,1c0.7,0.6,1,1.6,1,2.7c0,1.1-0.3,2-1,2.7c-0.7,0.7-1.6,1.1-2.7,1.1H118.1z
		 M153.5,13.6V2.2h-5.1V0.4h12v1.8h-5.1v11.4H153.5z M187.7,12.1c1.6,0,2.9-0.5,3.9-1.4c1-1,1.5-2.2,1.5-3.7c0-1.4-0.5-2.7-1.5-3.6
		c-1-1-2.3-1.4-3.9-1.4c-1.6,0-2.9,0.5-3.9,1.4c-1,0.9-1.5,2.1-1.5,3.6s0.5,2.7,1.5,3.7C184.8,11.6,186.1,12.1,187.7,12.1
		L187.7,12.1z M187.7,14c-2.1,0-3.9-0.7-5.3-2c-1.4-1.3-2.1-3-2.1-5c0-2,0.7-3.7,2.1-5c1.4-1.3,3.1-2,5.3-2s3.9,0.7,5.3,2
		c1.4,1.3,2,3,2,5c0,2-0.7,3.7-2.1,5C191.6,13.3,189.8,14,187.7,14L187.7,14z"/>
	<path fill="#B3B3B3" d="M5.3,85.9V41.9l-5.2-0.8v-3h7.8c1.5,0,3.3-0.1,5.3-0.3l1.8-0.1c0.9-0.1,1.8-0.1,2.6-0.1
		c5.2,0,9.1,1,11.6,2.9c2.5,1.9,3.8,4.8,3.8,8.7c0,2.1-0.4,4.1-1.1,5.9c-0.7,1.8-1.7,3.3-3.1,4.5c-1.4,1.3-3.1,2.1-5,2.6
		c2.6-0.1,4.8,0.3,6.7,1.3c1.9,1,3.4,2.4,4.4,4.3c1,1.8,1.5,4,1.5,6.4c0,5.8-1.8,9.9-5.3,12.2c-3.5,2.3-8.1,3.5-13.5,3.5
		c-0.7,0-2,0-3.8-0.1c-2.2-0.2-4.3-0.3-6.1-0.3H0v-3L5.3,85.9z M10.5,61c0.8,0,2.6,0.1,5.4,0.1h2.3c3.1,0,5.5-0.9,7.2-2.7
		c1.7-1.8,2.5-4.4,2.5-7.8c0-2.3-0.3-4.1-1-5.5c-0.7-1.4-1.8-2.4-3.4-3.1c-1.7-0.7-3.8-1.1-6.5-1.1c-1.4,0-3,0.1-4.8,0.3
		c-0.7,0.1-1.3,0.1-1.6,0.1V61z M10.5,86c1.2,0.4,3.5,0.6,7,0.6c4.5,0,7.9-1,10-2.8c2.2-1.9,3.3-4.7,3.3-8.5c0-2.5-0.4-4.5-1.2-6.1
		c-0.8-1.6-2-2.7-3.7-3.4c-1.7-0.7-3.9-1.1-6.5-1.1h-3.6c-2.2,0-4,0-5.3,0.1V86z M41.9,85.9l15.6-48.2h5.1l15.6,48.2l4.1,0.6v3H67
		v-3l5.5-0.6l-3.3-11H49.7l-3.3,10.9l5.5,0.7v3h-14v-3L41.9,85.9z M68.1,71.3l-7-22.9l-1.7-6.6l-1.7,6.8l-6.9,22.7H68.1z
		 M108.8,46.2l3.5-5l-19.8,0.7l-3.1,9l-2.8-0.4L87.8,38h29.4l1.3,2.6L94.2,80.8l-4.1,5.4l23.1-1.2l3.1-10.8l3,0.7l-1.4,14.6H85.4
		l-1.5-2.7L108.8,46.2z M125.1,85.9l15.6-48.2h5.1l15.6,48.2l4.1,0.6v3h-15.3v-3l5.5-0.6l-3.3-11h-19.5l-3.3,10.9l5.5,0.7v3h-14v-3
		L125.1,85.9z M151.3,71.3l-7-22.9l-1.7-6.6l-1.7,6.8L134,71.3H151.3z M172.9,85.9V41.8l-5-0.7v-2.9h7.7c0.9,0,2.5-0.1,4.8-0.3
		c2.3-0.2,3.7-0.3,4.5-0.3c4,0,7.2,0.5,9.6,1.5c2.4,1,4.2,2.5,5.3,4.5c1.1,2,1.6,4.5,1.6,7.5c0,2.1-0.4,4.3-1.1,6.2
		c-0.7,2-1.8,3.7-3.2,5.2c-1.4,1.5-3.1,2.5-5,3.1c1,0.8,2.1,2,3.1,3.7c1.2,2,2.6,4.5,4.2,7.7c1.5,3,2.7,5.1,3.5,6.3
		c0.8,1.4,1.6,2.2,2.2,2.4l2.6,0.8v2.8h-7.3c-0.7,0-1.5-0.8-2.4-2.5c-0.9-1.6-2.1-4.1-3.6-7.4c-1.7-3.7-3.1-6.6-4.2-8.7
		c-1.1-2.1-2.2-3.5-3.3-4.1c-3,0-6,0-8.8,0v19.2l6.4,0.6v3h-16.9v-3L172.9,85.9z M186.5,63.3c2.9,0,5.2-1,6.9-3
		c1.6-2,2.5-4.9,2.5-8.7c0-3.5-0.9-6.2-2.7-7.9s-4.7-2.6-8.8-2.6c-1.3,0-2.7,0.1-4.4,0.3c-0.8,0.1-1.4,0.1-1.9,0.1v21.8
		c0.8,0.1,2.5,0.1,5,0.1H186.5z"/>
	<polyline fill="none" stroke="#B3B3B3" stroke-miterlimit="10" points="16.5,27 16.5,23.2 191.1,23.2 191.1,27 	"/>
	<polyline fill="none" stroke="#B3B3B3" stroke-miterlimit="10" points="16.5,100.1 16.5,103.6 191.1,103.6 191.1,100.1 	"/>
</g>
</svg>
